<?xml version="1.0" encoding="UTF-8"?>
<svg xmlns="http://www.w3.org/2000/svg" xmlns:xlink="http://www.w3.org/1999/xlink" width="50pt" height="43pt" viewBox="0 0 50 43" version="1.1">
<g id="surface1">
<path style=" stroke:none;fill-rule:nonzero;fill:rgb(0%,0%,0%);fill-opacity:1;" d="M 40.257812 4.601562 C 39.695312 5.308594 39.59375 5.777344 39.726562 7.019531 C 40.558594 14.546875 40.957031 18.007812 41.089844 18.207031 C 41.191406 18.375 41.523438 18.476562 41.855469 18.476562 C 42.386719 18.476562 42.519531 17.839844 42.984375 13.671875 C 43.785156 6.886719 43.75 4.871094 42.820312 4.234375 C 41.753906 3.460938 41.023438 3.5625 40.257812 4.601562 Z M 40.257812 4.601562 "/>
<path style=" stroke:none;fill-rule:nonzero;fill:rgb(0%,0%,0%);fill-opacity:1;" d="M 7.914062 4.601562 C 7.082031 4.703125 6.648438 4.90625 6.648438 5.242188 C 6.648438 5.609375 7.148438 5.710938 8.808594 5.710938 L 10.972656 5.710938 L 10.972656 37.289062 L 8.808594 37.289062 C 7.179688 37.289062 6.648438 37.390625 6.648438 37.757812 C 6.648438 38.128906 7.511719 38.261719 10.570312 38.363281 C 16.953125 38.566406 22.273438 38.296875 22.273438 37.757812 C 22.273438 37.421875 21.742188 37.289062 20.277344 37.289062 L 18.285156 37.289062 L 18.285156 22.609375 L 21.707031 22.40625 C 25.664062 22.207031 28.65625 21.332031 30.917969 19.785156 C 33.84375 17.769531 34.941406 15.050781 34.242188 11.65625 C 33.542969 8.164062 30.351562 5.746094 25.300781 4.835938 C 22.9375 4.433594 11.203125 4.265625 7.914062 4.601562 Z M 23.703125 6.683594 C 25.398438 7.726562 26.0625 9.371094 26.195312 12.867188 C 26.460938 18.710938 25.035156 20.660156 20.046875 21.332031 L 18.285156 21.566406 L 18.285156 5.609375 L 20.414062 5.777344 C 21.773438 5.914062 22.972656 6.214844 23.703125 6.683594 Z M 23.703125 6.683594 "/>
</g>
</svg>
